<svg width="19" height="17" viewBox="0 0 19 17" fill="none" xmlns="http://www.w3.org/2000/svg">
<g id="Group">
<path id="Vector" d="M14.9999 0H13.9999H4.56995C3.49995 0 2.58995 0.67 2.37995 1.61L1.03995 7.61C0.769946 8.85 1.81995 10 3.22995 10H7.45995L5.93995 14.94C5.61995 15.97 6.45995 17 7.61995 17C8.19995 17 8.75995 16.76 9.13995 16.35L14.9999 10H18.9999V0H14.9999ZM8.39995 15.67C8.20995 15.88 7.91995 16 7.61995 16C7.35995 16 7.11995 15.89 6.98995 15.7C6.91995 15.6 6.83995 15.44 6.89995 15.23L8.41995 10.29L8.81995 9H7.45995H3.22995C2.81995 9 2.42995 8.83 2.19995 8.54C2.07995 8.39 1.94995 8.14 2.01995 7.82L3.35995 1.82C3.45995 1.35 3.96995 1 4.56995 1H13.9999V9.61L8.39995 15.67ZM17.9999 9H14.9999V1H17.9999V9Z" fill="white"/>
</g>
</svg>
